<svg width="25" height="32" viewBox="0 0 25 32" fill="none" xmlns="http://www.w3.org/2000/svg">
<path d="M14.6692 28.6706L12.9746 26.5632L13.439 24.6678L14.5311 25.1916L16.0499 22.336L22.1503 21.0142L23.029 21.8496" stroke="#4A4E4E" stroke-width="0.05"/>
<path d="M14.5315 25.1916L14.0921 22.3111L12.8369 21.4507C12.8369 21.4507 13.4645 18.4205 13.5398 18.3956C13.6152 18.3706 15.7114 17.5975 15.7114 17.5975L16.0001 16.2383L21.5357 19.6176L20.2428 21.4257" stroke="#4A4E4E" stroke-width="0.05"/>
<path d="M17.9956 17.4602L18.1839 16.7869L22.05 15.3154L23.8701 15.3404" stroke="#4A4E4E" stroke-width="0.05"/>
<path d="M17.5188 10.7393L17.1799 12.3105L13.9414 12.8217L13.728 13.9689H14.795L16 16.2385" stroke="#4A4E4E" stroke-width="0.05"/>
<path d="M17.8954 9.77881L17.1799 9.8661L16.5398 10.9385L13.9415 11.1879L13.6025 11.8613L13.9415 12.8214" stroke="#4A4E4E" stroke-width="0.05"/>
<path d="M12.4727 5.60156L13.2635 8.05812L18.1086 9.20534" stroke="#4A4E4E" stroke-width="0.05"/>
<path d="M14.3306 8.30762L14.2051 11.1632" stroke="#4A4E4E" stroke-width="0.05"/>
<path d="M13.2636 8.05811L11.8703 8.56937L10.9414 11.3003L11.8703 11.8115L12.4728 11.4998L13.9414 11.188" stroke="#4A4E4E" stroke-width="0.05"/>
<path d="M11.8701 8.56959L10.0249 7.90869" stroke="#4A4E4E" stroke-width="0.05"/>
<path d="M11.87 11.8115L10.4893 12.1482L10.6273 13.9688L11.7194 14.0686L13.7278 13.9688" stroke="#4A4E4E" stroke-width="0.05"/>
<path d="M11.7195 14.0684L10.2007 15.5523V17.1484L13.6024 17.2856L13.9413 16.7369L15.7488 17.1733" stroke="#4A4E4E" stroke-width="0.05"/>
<path d="M10.2005 16.7871L9.27166 16.9991L8.69425 16.7871L7.62731 18.1339L7.36371 20.8398L6.34697 21.7626L4.40137 22.0494" stroke="#4A4E4E" stroke-width="0.05"/>
<path d="M3.53516 20.4281V19.7173L5.43055 18.5576L6.27156 16.6123L7.17532 15.9389L8.21716 15.8267L9.73599 15.3154V15.9389L8.92009 16.8742" stroke="#4A4E4E" stroke-width="0.05"/>
<path d="M10.4891 12.148L10.3385 11.6367L7.51424 12.5345L6.53516 11.6367" stroke="#4A4E4E" stroke-width="0.05"/>
<path d="M7.51453 12.5347L6.15888 13.3701L6.63587 14.6171L4.51453 16.0636L3.53545 17.5725V18.4204L2.95804 19.206L2.83252 20.266" stroke="#4A4E4E" stroke-width="0.05"/>
<path d="M13.8536 2.97023L14.2929 1.98512L13.8285 1L12.7364 3.29445L13.3891 4.47908L12.7992 5.20233L12.4603 5.61384L11.9958 5.35197H11.9707L11.8828 5.28962C11.8075 5.25221 11.7071 5.18986 11.5941 5.12751C11.3556 4.99035 11.0293 4.81577 10.6904 4.64119C10.3891 4.47908 10.0879 4.32944 9.83682 4.20475C9.72385 4.4292 9.59833 4.71601 9.4728 5.00282C9.35983 5.25221 9.25941 5.50161 9.17155 5.7136L10.251 6.18745L10.9163 6.48673L10.5272 7.09775L8.66946 9.99075L8.60669 10.0905L8.51883 10.1653L4.57741 13.0583L4.15063 13.3701L3.77406 12.996L3.62343 12.8463L2.84519 13.607V14.9288L2.71967 15.0909L1.32636 16.899L1.42678 17.4228L1.45188 17.5724L1.40167 17.722L1 18.9566L2.09205 20.0788L3.54812 20.4031L3.89958 20.4779L4.01255 20.8146L5.88285 26.4135L9.04603 28.6456H14.6946L14.8577 29.0322L15.4728 30.5286L18.6109 31.1022L19.728 28.9698L19.954 28.5459L20.431 28.6581L23.5063 29.3689L23.7448 26.0394V25.8399L23.8954 25.6903L24.4854 24.992V24.3685L23.3808 22.4107L23.0544 21.8371L23.6444 21.5503L24.2092 20.6026L23.1423 19.6175L22.954 19.3805L23.0293 19.0813L23.908 15.3403L21.3975 13.3451L21.0084 13.0334L21.2218 12.5845L21.3849 12.2478L18.1464 10.9759L17.569 10.7514L17.795 10.1778V10.1529L17.8326 10.078C17.8577 10.0157 17.8954 9.91593 17.9456 9.8037C18.0335 9.56677 18.1464 9.2675 18.272 8.95575C18.3849 8.64401 18.4979 8.34473 18.5732 8.1078C18.5858 8.07039 18.5983 8.03298 18.6109 7.99557C18.5732 7.93323 18.523 7.85841 18.4854 7.77112C18.3473 7.53419 18.1716 7.22245 17.9958 6.9107C17.8201 6.59895 17.6569 6.28721 17.5188 6.05028C17.4561 5.92558 17.4059 5.82582 17.3557 5.75101C17.3305 5.7136 17.318 5.67619 17.3054 5.63878C17.3054 5.62631 17.2929 5.60137 17.2803 5.57643C17.2803 5.57643 17.2803 5.53902 17.2552 5.51408C17.2552 5.51408 17.2301 5.42679 17.2301 5.3395C17.2301 5.23974 17.2427 5.12751 17.2552 5.04022C17.2552 4.99035 17.2678 4.928 17.2803 4.86565L16.0126 4.40426L15.1967 4.74095L14.6569 4.96541L14.3933 4.44167L13.9038 2.9827L13.8536 2.97023Z" stroke="#4A4E4E" stroke-width="0.8"/>
</svg>
