<?xml version="1.0" encoding="utf-8"?>
<!-- Generator: Adobe Illustrator 26.5.0, SVG Export Plug-In . SVG Version: 6.00 Build 0)  -->
<svg version="1.1" id="Capa_1" xmlns="http://www.w3.org/2000/svg" xmlns:xlink="http://www.w3.org/1999/xlink" x="0px" y="0px"
	 viewBox="0 0 200 200" style="enable-background:new 0 0 200 200;" xml:space="preserve">
<style type="text/css">
	.st0{fill:#FFFFFF;}
</style>
<g>
	<path class="st0" d="M93.9,167.2c1.6,1.4,3.5,2,5.5,2s3.9-0.7,5.5-2l67.6-57.7c3.6-3,4-8.4,0.9-11.9c-3-3.6-8.4-4-11.9-0.9
		l-53,45.2V12c0-4.7-3.8-8.5-8.5-8.5s-8.5,3.8-8.5,8.5v130.9l-53-45.2c-3.6-3-8.9-2.6-11.9,0.9c-3,3.6-2.6,8.9,0.9,11.9L93.9,167.2z
		"/>
	<path class="st0" d="M166.9,179.6H33.1c-4.7,0-8.5,3.8-8.5,8.5c0,4.7,3.8,8.5,8.5,8.5h133.9c4.7,0,8.5-3.8,8.5-8.5
		C175.4,183.3,171.6,179.6,166.9,179.6z"/>
</g>
</svg>
