<svg width="90" height="42" viewBox="0 0 90 42" fill="none" xmlns="http://www.w3.org/2000/svg">
<g filter="url(#filter0_d_1985_33771)">
<rect x="3.37305" width="34.0248" height="34.0248" rx="4.04355" fill="white"/>
<path fill-rule="evenodd" clip-rule="evenodd" d="M6 3H15.8555V5.19581H8.19581V12.8555H6V3Z" fill="#637381"/>
<path fill-rule="evenodd" clip-rule="evenodd" d="M8.19581 29.6643V22.0046H6V31.8602H15.8555V29.6643H8.19581Z" fill="#637381"/>
<path fill-rule="evenodd" clip-rule="evenodd" d="M32.6646 29.6643V22.0046H34.8604V31.8602H25.0049V29.6643H32.6646Z" fill="#637381"/>
<path fill-rule="evenodd" clip-rule="evenodd" d="M32.6646 5.19581H25.0049V3H34.8604V12.8555H32.6646V5.19581Z" fill="#637381"/>
<path d="M17.0515 19C17.7574 19.6588 18.3346 20.1941 19 20.8155C17.9522 21.931 17.0404 22.908 16.0478 23.9674C16.5956 24.6112 17.0993 25.2027 17.7794 26H12V20.1567C12.761 20.8155 13.3382 21.3171 14.0184 21.9086C15.0037 20.9652 15.9632 20.0406 17.0515 19Z" fill="#637381"/>
<path d="M23.9485 16C23.2426 15.3412 22.6654 14.8059 22 14.1845C23.0478 13.069 23.9596 12.092 24.9522 11.0326C24.4044 10.3888 23.9007 9.79733 23.2206 9L29 9L29 14.8433C28.239 14.1845 27.6618 13.6829 26.9816 13.0914C25.9963 14.0348 25.0368 14.9594 23.9485 16Z" fill="#637381"/>
<path d="M17.8683 9C17.1643 9.76418 16.6704 10.2984 16.0548 10.9624C17.0021 11.9936 17.9347 13.0101 19 14.1749C18.3439 14.7462 17.7504 15.2618 16.9063 16C16.1653 14.9576 15.3876 13.8596 14.5471 12.6762C13.4376 13.6073 12.8183 14.1267 12 14.8129V9H17.8683Z" fill="#637381"/>
<path d="M22.0036 21.2399L24.0893 19C25.1305 20.0221 26.0614 20.9373 27.0706 21.9262C27.6746 21.3911 28.2396 20.8856 29 20.2066V26H23.4462C24.068 25.2472 24.5477 24.6716 25.1909 23.8967C24.1817 23.0554 23.1832 22.2214 22 21.2362L22.0036 21.2399Z" fill="#637381"/>
<path d="M43.8807 15V7.72727H46.3381C46.9086 7.72727 47.375 7.83026 47.7372 8.03622C48.1018 8.23982 48.3717 8.51562 48.5469 8.86364C48.7221 9.21165 48.8097 9.59991 48.8097 10.0284C48.8097 10.4569 48.7221 10.8464 48.5469 11.1967C48.3741 11.5471 48.1065 11.8265 47.7443 12.0348C47.3821 12.2408 46.9181 12.3438 46.3523 12.3438H44.5909V11.5625H46.3239C46.7145 11.5625 47.0282 11.495 47.2649 11.3601C47.5017 11.2251 47.6733 11.0429 47.7798 10.8132C47.8887 10.5812 47.9432 10.3196 47.9432 10.0284C47.9432 9.73722 47.8887 9.4768 47.7798 9.24716C47.6733 9.01752 47.5005 8.83759 47.2614 8.70739C47.0223 8.57481 46.705 8.50852 46.3097 8.50852H44.7614V15H43.8807ZM51.7198 15.1278C51.3742 15.1278 51.0605 15.0627 50.7788 14.9325C50.497 14.8 50.2733 14.6094 50.1076 14.3608C49.9419 14.1098 49.859 13.8068 49.859 13.4517C49.859 13.1392 49.9206 12.8859 50.0437 12.6918C50.1668 12.4953 50.3313 12.3414 50.5373 12.2301C50.7433 12.1188 50.9705 12.036 51.2191 11.9815C51.4701 11.9247 51.7222 11.8797 51.9755 11.8466C52.3069 11.804 52.5756 11.772 52.7816 11.7507C52.9899 11.727 53.1415 11.688 53.2362 11.6335C53.3332 11.5791 53.3817 11.4844 53.3817 11.3494V11.321C53.3817 10.9706 53.2859 10.6984 53.0941 10.5043C52.9047 10.3101 52.6171 10.2131 52.2312 10.2131C51.8311 10.2131 51.5174 10.3007 51.2901 10.4759C51.0629 10.651 50.9031 10.8381 50.8107 11.0369L50.0153 10.7528C50.1573 10.4214 50.3467 10.1634 50.5835 9.97869C50.8226 9.79167 51.083 9.66146 51.3647 9.58807C51.6488 9.51231 51.9281 9.47443 52.2028 9.47443C52.378 9.47443 52.5792 9.49574 52.8065 9.53835C53.0361 9.5786 53.2575 9.66264 53.4705 9.79048C53.686 9.91832 53.8647 10.1113 54.0067 10.3693C54.1488 10.6274 54.2198 10.973 54.2198 11.4062V15H53.3817V14.2614H53.3391C53.2823 14.3797 53.1876 14.5064 53.055 14.6413C52.9225 14.7763 52.7461 14.8911 52.5259 14.9858C52.3058 15.0805 52.0371 15.1278 51.7198 15.1278ZM51.8477 14.375C52.1791 14.375 52.4585 14.3099 52.6857 14.1797C52.9154 14.0495 53.0882 13.8814 53.2042 13.6754C53.3226 13.4695 53.3817 13.2528 53.3817 13.0256V12.2585C53.3462 12.3011 53.2681 12.3402 53.1474 12.3757C53.029 12.4089 52.8917 12.4384 52.7354 12.4645C52.5816 12.4882 52.4312 12.5095 52.2844 12.5284C52.14 12.545 52.0228 12.5592 51.9329 12.571C51.7151 12.5994 51.5115 12.6456 51.3221 12.7095C51.1351 12.7711 50.9835 12.8646 50.8675 12.9901C50.7539 13.1132 50.6971 13.2812 50.6971 13.4943C50.6971 13.7855 50.8048 14.0057 51.0202 14.1548C51.238 14.3016 51.5138 14.375 51.8477 14.375ZM56.5875 11.7188V15H55.7495V9.54545H56.5591V10.3977H56.6301C56.758 10.1207 56.9521 9.8982 57.2125 9.73011C57.473 9.55966 57.8091 9.47443 58.2211 9.47443C58.5904 9.47443 58.9135 9.55019 59.1905 9.7017C59.4675 9.85085 59.6829 10.0781 59.8368 10.3835C59.9907 10.6866 60.0676 11.0701 60.0676 11.5341V15H59.2296V11.5909C59.2296 11.1624 59.1183 10.8286 58.8958 10.5895C58.6732 10.348 58.3678 10.2273 57.9796 10.2273C57.7121 10.2273 57.473 10.2853 57.2623 10.4013C57.0539 10.5173 56.8894 10.6866 56.7686 10.9091C56.6479 11.1316 56.5875 11.4015 56.5875 11.7188ZM63.9712 9.54545V10.2557H61.1445V9.54545H63.9712ZM61.9684 8.23864H62.8065V13.4375C62.8065 13.6742 62.8408 13.8518 62.9094 13.9702C62.9805 14.0862 63.0704 14.1643 63.1793 14.2045C63.2906 14.2424 63.4078 14.2614 63.5309 14.2614C63.6232 14.2614 63.699 14.2566 63.7582 14.2472C63.8174 14.2353 63.8647 14.2259 63.9002 14.2188L64.0707 14.9716C64.0138 14.9929 63.9345 15.0142 63.8327 15.0355C63.7309 15.0592 63.6019 15.071 63.4457 15.071C63.2089 15.071 62.9769 15.0201 62.7496 14.9183C62.5247 14.8165 62.3377 14.6615 62.1886 14.4531C62.0418 14.2448 61.9684 13.982 61.9684 13.6648V8.23864ZM66.837 15.1278C66.4914 15.1278 66.1777 15.0627 65.896 14.9325C65.6142 14.8 65.3905 14.6094 65.2248 14.3608C65.0591 14.1098 64.9762 13.8068 64.9762 13.4517C64.9762 13.1392 65.0378 12.8859 65.1609 12.6918C65.284 12.4953 65.4485 12.3414 65.6545 12.2301C65.8604 12.1188 66.0877 12.036 66.3363 11.9815C66.5872 11.9247 66.8394 11.8797 67.0927 11.8466C67.4241 11.804 67.6928 11.772 67.8988 11.7507C68.1071 11.727 68.2586 11.688 68.3533 11.6335C68.4504 11.5791 68.4989 11.4844 68.4989 11.3494V11.321C68.4989 10.9706 68.4031 10.6984 68.2113 10.5043C68.0219 10.3101 67.7343 10.2131 67.3484 10.2131C66.9483 10.2131 66.6346 10.3007 66.4073 10.4759C66.18 10.651 66.0202 10.8381 65.9279 11.0369L65.1325 10.7528C65.2745 10.4214 65.4639 10.1634 65.7006 9.97869C65.9397 9.79167 66.2002 9.66146 66.4819 9.58807C66.766 9.51231 67.0453 9.47443 67.32 9.47443C67.4951 9.47443 67.6964 9.49574 67.9237 9.53835C68.1533 9.5786 68.3746 9.66264 68.5877 9.79048C68.8031 9.91832 68.9819 10.1113 69.1239 10.3693C69.266 10.6274 69.337 10.973 69.337 11.4062V15H68.4989V14.2614H68.4563C68.3995 14.3797 68.3048 14.5064 68.1722 14.6413C68.0397 14.7763 67.8633 14.8911 67.6431 14.9858C67.4229 15.0805 67.1542 15.1278 66.837 15.1278ZM66.9648 14.375C67.2963 14.375 67.5756 14.3099 67.8029 14.1797C68.0326 14.0495 68.2054 13.8814 68.3214 13.6754C68.4397 13.4695 68.4989 13.2528 68.4989 13.0256V12.2585C68.4634 12.3011 68.3853 12.3402 68.2646 12.3757C68.1462 12.4089 68.0089 12.4384 67.8526 12.4645C67.6987 12.4882 67.5484 12.5095 67.4016 12.5284C67.2572 12.545 67.14 12.5592 67.0501 12.571C66.8323 12.5994 66.6287 12.6456 66.4393 12.7095C66.2522 12.7711 66.1007 12.8646 65.9847 12.9901C65.8711 13.1132 65.8143 13.2812 65.8143 13.4943C65.8143 13.7855 65.922 14.0057 66.1374 14.1548C66.3552 14.3016 66.631 14.375 66.9648 14.375ZM71.7047 7.72727V15H70.8667V7.72727H71.7047ZM74.0778 7.72727V15H73.2397V7.72727H74.0778ZM77.2179 15.1278C76.8722 15.1278 76.5585 15.0627 76.2768 14.9325C75.9951 14.8 75.7714 14.6094 75.6056 14.3608C75.4399 14.1098 75.3571 13.8068 75.3571 13.4517C75.3571 13.1392 75.4186 12.8859 75.5417 12.6918C75.6648 12.4953 75.8294 12.3414 76.0353 12.2301C76.2413 12.1188 76.4686 12.036 76.7172 11.9815C76.9681 11.9247 77.2202 11.8797 77.4735 11.8466C77.805 11.804 78.0737 11.772 78.2797 11.7507C78.488 11.727 78.6395 11.688 78.7342 11.6335C78.8313 11.5791 78.8798 11.4844 78.8798 11.3494V11.321C78.8798 10.9706 78.7839 10.6984 78.5922 10.5043C78.4028 10.3101 78.1151 10.2131 77.7292 10.2131C77.3291 10.2131 77.0154 10.3007 76.7882 10.4759C76.5609 10.651 76.4011 10.8381 76.3088 11.0369L75.5133 10.7528C75.6554 10.4214 75.8448 10.1634 76.0815 9.97869C76.3206 9.79167 76.581 9.66146 76.8627 9.58807C77.1468 9.51231 77.4262 9.47443 77.7008 9.47443C77.876 9.47443 78.0772 9.49574 78.3045 9.53835C78.5342 9.5786 78.7555 9.66264 78.9686 9.79048C79.184 9.91832 79.3627 10.1113 79.5048 10.3693C79.6468 10.6274 79.7179 10.973 79.7179 11.4062V15H78.8798V14.2614H78.8372C78.7804 14.3797 78.6857 14.5064 78.5531 14.6413C78.4205 14.7763 78.2441 14.8911 78.024 14.9858C77.8038 15.0805 77.5351 15.1278 77.2179 15.1278ZM77.3457 14.375C77.6771 14.375 77.9565 14.3099 78.1838 14.1797C78.4134 14.0495 78.5862 13.8814 78.7022 13.6754C78.8206 13.4695 78.8798 13.2528 78.8798 13.0256V12.2585C78.8443 12.3011 78.7662 12.3402 78.6454 12.3757C78.527 12.4089 78.3897 12.4384 78.2335 12.4645C78.0796 12.4882 77.9293 12.5095 77.7825 12.5284C77.6381 12.545 77.5209 12.5592 77.4309 12.571C77.2131 12.5994 77.0095 12.6456 76.8201 12.7095C76.6331 12.7711 76.4816 12.8646 76.3656 12.9901C76.252 13.1132 76.1951 13.2812 76.1951 13.4943C76.1951 13.7855 76.3029 14.0057 76.5183 14.1548C76.7361 14.3016 77.0119 14.375 77.3457 14.375ZM45.983 27.1136C45.4716 27.1136 45.0313 26.9929 44.6619 26.7514C44.2926 26.5099 44.0085 26.1773 43.8097 25.7536C43.6108 25.3298 43.5114 24.8456 43.5114 24.3011C43.5114 23.7472 43.6132 23.2583 43.8168 22.8345C44.0227 22.4084 44.3092 22.0758 44.6761 21.8366C45.0455 21.5952 45.4763 21.4744 45.9688 21.4744C46.3523 21.4744 46.6979 21.5455 47.0057 21.6875C47.3134 21.8295 47.5656 22.0284 47.7621 22.2841C47.9586 22.5398 48.0805 22.8381 48.1278 23.179H47.2898C47.2259 22.9304 47.0838 22.7102 46.8636 22.5185C46.6458 22.3243 46.3523 22.2273 45.983 22.2273C45.6563 22.2273 45.3698 22.3125 45.1236 22.483C44.8797 22.651 44.6892 22.889 44.5518 23.1967C44.4169 23.5021 44.3494 23.8608 44.3494 24.2727C44.3494 24.6941 44.4157 25.0611 44.5483 25.3736C44.6832 25.6861 44.8726 25.9287 45.1165 26.1016C45.3627 26.2744 45.6515 26.3608 45.983 26.3608C46.2008 26.3608 46.3984 26.3229 46.576 26.2472C46.7536 26.1714 46.9039 26.0625 47.027 25.9205C47.1501 25.7784 47.2377 25.608 47.2898 25.4091H48.1278C48.0805 25.7311 47.9633 26.0211 47.7763 26.2791C47.5916 26.5348 47.3466 26.7384 47.0412 26.8899C46.7382 27.0391 46.3854 27.1136 45.983 27.1136ZM51.5689 27.1136C51.0765 27.1136 50.6444 26.9964 50.2727 26.7621C49.9034 26.5277 49.6146 26.1998 49.4062 25.7784C49.2003 25.357 49.0973 24.8646 49.0973 24.3011C49.0973 23.733 49.2003 23.237 49.4062 22.8132C49.6146 22.3894 49.9034 22.0604 50.2727 21.826C50.6444 21.5916 51.0765 21.4744 51.5689 21.4744C52.0613 21.4744 52.4922 21.5916 52.8615 21.826C53.2332 22.0604 53.522 22.3894 53.728 22.8132C53.9363 23.237 54.0405 23.733 54.0405 24.3011C54.0405 24.8646 53.9363 25.357 53.728 25.7784C53.522 26.1998 53.2332 26.5277 52.8615 26.7621C52.4922 26.9964 52.0613 27.1136 51.5689 27.1136ZM51.5689 26.3608C51.9429 26.3608 52.2507 26.2649 52.4922 26.0732C52.7337 25.8814 52.9124 25.6293 53.0284 25.3168C53.1444 25.0043 53.2024 24.6657 53.2024 24.3011C53.2024 23.9366 53.1444 23.5968 53.0284 23.282C52.9124 22.9671 52.7337 22.7126 52.4922 22.5185C52.2507 22.3243 51.9429 22.2273 51.5689 22.2273C51.1948 22.2273 50.8871 22.3243 50.6456 22.5185C50.4041 22.7126 50.2254 22.9671 50.1094 23.282C49.9934 23.5968 49.9354 23.9366 49.9354 24.3011C49.9354 24.6657 49.9934 25.0043 50.1094 25.3168C50.2254 25.6293 50.4041 25.8814 50.6456 26.0732C50.8871 26.2649 51.1948 26.3608 51.5689 26.3608ZM55.3198 27V21.5455H56.1294V22.3977H56.2005C56.3141 22.1065 56.4976 21.8804 56.7509 21.7195C57.0042 21.5561 57.3084 21.4744 57.6635 21.4744C58.0234 21.4744 58.3229 21.5561 58.562 21.7195C58.8034 21.8804 58.9917 22.1065 59.1266 22.3977H59.1834C59.3231 22.116 59.5326 21.8923 59.812 21.7266C60.0913 21.5585 60.4263 21.4744 60.8169 21.4744C61.3046 21.4744 61.7035 21.6271 62.0137 21.9325C62.3238 22.2356 62.4789 22.7079 62.4789 23.3494V27H61.6408V23.3494C61.6408 22.947 61.5307 22.6593 61.3105 22.4865C61.0904 22.3137 60.8311 22.2273 60.5328 22.2273C60.1493 22.2273 59.8522 22.3433 59.6415 22.5753C59.4308 22.8049 59.3255 23.0961 59.3255 23.4489V27H58.4732V23.2642C58.4732 22.9541 58.3726 22.7043 58.1713 22.5149C57.9701 22.3232 57.7109 22.2273 57.3936 22.2273C57.1758 22.2273 56.9722 22.2853 56.7828 22.4013C56.5958 22.5173 56.4443 22.6783 56.3283 22.8842C56.2147 23.0878 56.1578 23.3234 56.1578 23.5909V27H55.3198ZM64.0112 29.0455V21.5455H64.8208V22.4119H64.9203C64.9818 22.3172 65.0671 22.1965 65.176 22.0497C65.2872 21.9006 65.4458 21.768 65.6518 21.652C65.8601 21.5336 66.1419 21.4744 66.497 21.4744C66.9563 21.4744 67.3611 21.5893 67.7115 21.8189C68.0618 22.0485 68.3353 22.3741 68.5318 22.7955C68.7283 23.2169 68.8265 23.714 68.8265 24.2869C68.8265 24.8646 68.7283 25.3653 68.5318 25.7891C68.3353 26.2105 68.063 26.5372 67.715 26.7692C67.367 26.9988 66.9657 27.1136 66.5112 27.1136C66.1608 27.1136 65.8803 27.0556 65.6696 26.9396C65.4589 26.8213 65.2967 26.6875 65.1831 26.5384C65.0694 26.3868 64.9818 26.2614 64.9203 26.1619H64.8493V29.0455H64.0112ZM64.835 24.2727C64.835 24.6847 64.8954 25.0481 65.0162 25.3629C65.1369 25.6754 65.3133 25.9205 65.5453 26.098C65.7773 26.2732 66.0614 26.3608 66.3975 26.3608C66.7479 26.3608 67.0403 26.2685 67.2747 26.0838C67.5114 25.8968 67.689 25.6458 67.8074 25.331C67.9281 25.0137 67.9885 24.661 67.9885 24.2727C67.9885 23.8892 67.9293 23.5436 67.8109 23.2358C67.6949 22.9257 67.5185 22.6806 67.2818 22.5007C67.0474 22.3184 66.7527 22.2273 66.3975 22.2273C66.0566 22.2273 65.7702 22.3137 65.5382 22.4865C65.3062 22.657 65.131 22.8961 65.0126 23.2038C64.8942 23.5092 64.835 23.8655 64.835 24.2727ZM70.943 19.7273V27H70.1049V19.7273H70.943ZM74.7649 27.1136C74.2393 27.1136 73.786 26.9976 73.4048 26.7656C73.026 26.5312 72.7337 26.2045 72.5277 25.7855C72.3241 25.3641 72.2223 24.8741 72.2223 24.3153C72.2223 23.7566 72.3241 23.2642 72.5277 22.8381C72.7337 22.4096 73.0201 22.0758 73.3871 21.8366C73.7564 21.5952 74.1873 21.4744 74.6797 21.4744C74.9638 21.4744 75.2443 21.5218 75.5213 21.6165C75.7983 21.7112 76.0504 21.8651 76.2777 22.0781C76.505 22.2888 76.6861 22.5682 76.821 22.9162C76.956 23.2642 77.0234 23.6927 77.0234 24.2017V24.5568H72.8189V23.8324H76.1712C76.1712 23.5246 76.1096 23.25 75.9865 23.0085C75.8658 22.767 75.6929 22.5765 75.468 22.4368C75.2455 22.2971 74.9827 22.2273 74.6797 22.2273C74.3459 22.2273 74.0571 22.3101 73.8132 22.4759C73.5717 22.6392 73.3859 22.8523 73.2557 23.1151C73.1255 23.3778 73.0604 23.6596 73.0604 23.9602V24.4432C73.0604 24.8551 73.1314 25.2043 73.2734 25.4908C73.4179 25.7749 73.6179 25.9915 73.8736 26.1406C74.1293 26.2874 74.4264 26.3608 74.7649 26.3608C74.9851 26.3608 75.1839 26.33 75.3615 26.2685C75.5414 26.2045 75.6965 26.1098 75.8267 25.9844C75.9569 25.8565 76.0575 25.6979 76.1286 25.5085L76.9382 25.7358C76.853 26.0104 76.7098 26.2519 76.5085 26.4602C76.3073 26.6662 76.0587 26.8272 75.7628 26.9432C75.4669 27.0568 75.1342 27.1136 74.7649 27.1136ZM80.6705 21.5455V22.2557H77.8438V21.5455H80.6705ZM78.6676 20.2386H79.5057V25.4375C79.5057 25.6742 79.54 25.8518 79.6087 25.9702C79.6797 26.0862 79.7696 26.1643 79.8786 26.2045C79.9898 26.2424 80.107 26.2614 80.2301 26.2614C80.3224 26.2614 80.3982 26.2566 80.4574 26.2472C80.5166 26.2353 80.5639 26.2259 80.5994 26.2188L80.7699 26.9716C80.7131 26.9929 80.6338 27.0142 80.532 27.0355C80.4302 27.0592 80.3011 27.071 80.1449 27.071C79.9081 27.071 79.6761 27.0201 79.4489 26.9183C79.224 26.8165 79.0369 26.6615 78.8878 26.4531C78.741 26.2448 78.6676 25.982 78.6676 25.6648V20.2386ZM83.5362 27.1278C83.1906 27.1278 82.8769 27.0627 82.5952 26.9325C82.3134 26.8 82.0897 26.6094 81.924 26.3608C81.7583 26.1098 81.6754 25.8068 81.6754 25.4517C81.6754 25.1392 81.737 24.8859 81.8601 24.6918C81.9832 24.4953 82.1477 24.3414 82.3537 24.2301C82.5597 24.1188 82.7869 24.036 83.0355 23.9815C83.2865 23.9247 83.5386 23.8797 83.7919 23.8466C84.1233 23.804 84.392 23.772 84.598 23.7507C84.8063 23.727 84.9579 23.688 85.0526 23.6335C85.1496 23.5791 85.1982 23.4844 85.1982 23.3494V23.321C85.1982 22.9706 85.1023 22.6984 84.9105 22.5043C84.7211 22.3101 84.4335 22.2131 84.0476 22.2131C83.6475 22.2131 83.3338 22.3007 83.1065 22.4759C82.8793 22.651 82.7195 22.8381 82.6271 23.0369L81.8317 22.7528C81.9737 22.4214 82.1631 22.1634 82.3999 21.9787C82.639 21.7917 82.8994 21.6615 83.1811 21.5881C83.4652 21.5123 83.7446 21.4744 84.0192 21.4744C84.1944 21.4744 84.3956 21.4957 84.6229 21.5384C84.8525 21.5786 85.0739 21.6626 85.2869 21.7905C85.5024 21.9183 85.6811 22.1113 85.8232 22.3693C85.9652 22.6274 86.0362 22.973 86.0362 23.4062V27H85.1982V26.2614H85.1555C85.0987 26.3797 85.004 26.5064 84.8714 26.6413C84.7389 26.7763 84.5625 26.8911 84.3423 26.9858C84.1222 27.0805 83.8535 27.1278 83.5362 27.1278ZM83.6641 26.375C83.9955 26.375 84.2749 26.3099 84.5021 26.1797C84.7318 26.0495 84.9046 25.8814 85.0206 25.6754C85.139 25.4695 85.1982 25.2528 85.1982 25.0256V24.2585C85.1626 24.3011 85.0845 24.3402 84.9638 24.3757C84.8454 24.4089 84.7081 24.4384 84.5518 24.4645C84.398 24.4882 84.2476 24.5095 84.1009 24.5284C83.9564 24.545 83.8393 24.5592 83.7493 24.571C83.5315 24.5994 83.3279 24.6456 83.1385 24.7095C82.9515 24.7711 82.8 24.8646 82.6839 24.9901C82.5703 25.1132 82.5135 25.2812 82.5135 25.4943C82.5135 25.7855 82.6212 26.0057 82.8366 26.1548C83.0545 26.3016 83.3303 26.375 83.6641 26.375Z" fill="#637381"/>
</g>
<defs>
<filter id="filter0_d_1985_33771" x="-0.287436" y="0" width="90.5749" height="41.5749" filterUnits="userSpaceOnUse" color-interpolation-filters="sRGB">
<feFlood flood-opacity="0" result="BackgroundImageFix"/>
<feColorMatrix in="SourceAlpha" type="matrix" values="0 0 0 0 0 0 0 0 0 0 0 0 0 0 0 0 0 0 127 0" result="hardAlpha"/>
<feOffset dy="3.28744"/>
<feGaussianBlur stdDeviation="1.64372"/>
<feComposite in2="hardAlpha" operator="out"/>
<feColorMatrix type="matrix" values="0 0 0 0 0.408333 0 0 0 0 0.404931 0 0 0 0 0.404931 0 0 0 0.15 0"/>
<feBlend mode="normal" in2="BackgroundImageFix" result="effect1_dropShadow_1985_33771"/>
<feBlend mode="normal" in="SourceGraphic" in2="effect1_dropShadow_1985_33771" result="shape"/>
</filter>
</defs>
</svg>
